<svg width="22" height="23" viewBox="0 0 22 23" fill="none" xmlns="http://www.w3.org/2000/svg">
<path fill-rule="evenodd" clip-rule="evenodd" d="M4.85571 5.68749C4.85571 4.96659 5.00552 4.25274 5.29657 3.58672C5.58762 2.92069 6.01423 2.31552 6.55203 1.80577C7.08982 1.29601 7.72828 0.891653 8.43095 0.615776C9.13361 0.339899 9.88673 0.197906 10.6473 0.197906C11.4078 0.197906 12.161 0.339899 12.8636 0.615776C13.5663 0.891653 14.2048 1.29601 14.7425 1.80577C15.2803 2.31552 15.7069 2.92069 15.998 3.58672C16.2891 4.25274 16.4389 4.96659 16.4389 5.68749C16.4389 7.14342 15.8287 8.53971 14.7425 9.56921C13.6564 10.5987 12.1833 11.1771 10.6473 11.1771C9.11127 11.1771 7.63816 10.5987 6.55203 9.56921C5.46589 8.53971 4.85571 7.14342 4.85571 5.68749ZM10.6473 2.13541C9.65339 2.13541 8.7002 2.50964 7.99741 3.17579C7.29462 3.84193 6.8998 4.74542 6.8998 5.68749C6.8998 6.62956 7.29462 7.53305 7.99741 8.19919C8.7002 8.86534 9.65339 9.23957 10.6473 9.23957C11.6412 9.23957 12.5944 8.86534 13.2972 8.19919C14 7.53305 14.3948 6.62956 14.3948 5.68749C14.3948 4.74542 14 3.84193 13.2972 3.17579C12.5944 2.50964 11.6412 2.13541 10.6473 2.13541ZM5.19639 15.0521C4.38321 15.0521 3.60333 15.3583 3.02831 15.9033C2.4533 16.4483 2.13027 17.1875 2.13027 17.9583V19.4928C2.13027 19.5161 2.14798 19.5367 2.17251 19.5406C7.78557 20.4086 13.5104 20.4086 19.1221 19.5406C19.1336 19.5381 19.144 19.5321 19.1516 19.5234C19.1593 19.5148 19.1637 19.5041 19.1643 19.4928V17.9583C19.1643 17.1875 18.8413 16.4483 18.2663 15.9033C17.6912 15.3583 16.9114 15.0521 16.0982 15.0521H15.6349C15.5984 15.0527 15.5622 15.0579 15.5272 15.0676L14.3484 15.4331C11.9435 16.1775 9.35109 16.1775 6.94613 15.4331L5.76601 15.0676C5.7319 15.0581 5.69662 15.0529 5.66108 15.0521H5.19639ZM0.0861816 17.9583C0.0861816 16.6737 0.624577 15.4417 1.58293 14.5333C2.54128 13.6249 3.84108 13.1146 5.19639 13.1146H5.65972C5.91409 13.1154 6.1612 13.1525 6.40104 13.2257L7.58116 13.5912C9.5735 14.2077 11.7211 14.2077 13.7134 13.5912L14.8935 13.2257C15.132 13.152 15.3828 13.1146 15.6335 13.1146H16.0982C17.4535 13.1146 18.7533 13.6249 19.7116 14.5333C20.67 15.4417 21.2084 16.6737 21.2084 17.9583V19.4928C21.2084 20.4667 20.4643 21.296 19.4505 21.4523C13.6203 22.3543 7.67431 22.3543 1.84409 21.4523C1.35376 21.3758 0.907968 21.1369 0.586058 20.7781C0.264147 20.4193 0.0870118 19.9638 0.0861816 19.4928V17.9583Z" fill="#365574"/>
</svg>
