<svg width="25" height="23" viewBox="0 0 25 23" fill="none" xmlns="http://www.w3.org/2000/svg">
<path fill-rule="evenodd" clip-rule="evenodd" d="M15.6028 15.9511C13.7658 17.3423 11.4365 18.0141 9.09328 17.8283C6.75008 17.6426 4.57087 16.6134 3.00321 14.9523C1.43555 13.2911 0.598448 11.124 0.66384 8.89612C0.729232 6.66821 1.69215 4.5486 3.35482 2.97262C5.0175 1.39665 7.25371 0.483938 9.60418 0.421955C11.9546 0.359973 14.2409 1.15342 15.9935 2.63934C17.746 4.12526 18.8318 6.19084 19.0278 8.41186C19.2237 10.6329 18.515 12.8407 17.0473 14.5819L24.0735 21.2405C24.1739 21.3292 24.2544 21.4361 24.3103 21.5549C24.3661 21.6738 24.3962 21.802 24.3986 21.9321C24.401 22.0622 24.3758 22.1914 24.3244 22.312C24.273 22.4327 24.1965 22.5422 24.0994 22.6342C24.0023 22.7262 23.8867 22.7987 23.7595 22.8475C23.6322 22.8962 23.4959 22.9201 23.3587 22.9178C23.2214 22.9155 23.0861 22.887 22.9607 22.8341C22.8354 22.7811 22.7225 22.7048 22.629 22.6096L15.6028 15.9511ZM4.80319 13.9335C3.803 12.9854 3.12179 11.7775 2.84565 10.4625C2.56951 9.14751 2.71083 7.78444 3.25174 6.54556C3.79266 5.30667 4.7089 4.24758 5.88466 3.50214C7.06043 2.75669 8.44294 2.35834 9.85749 2.35744C11.272 2.35653 12.6551 2.75312 13.8319 3.49707C15.0088 4.24101 15.9265 5.29893 16.4692 6.53713C17.0118 7.77532 17.1551 9.13821 16.8808 10.4535C16.6065 11.7689 15.9271 12.9776 14.9282 13.927L14.9214 13.9335L14.9146 13.9387C13.5724 15.2079 11.7537 15.9203 9.85776 15.9193C7.96186 15.9183 6.1439 15.2041 4.80319 13.9335Z" fill="#365574"/>
</svg>
