<svg width="34" height="34" viewBox="0 0 34 34" fill="none" xmlns="http://www.w3.org/2000/svg">
<path d="M17.16 0.679998C19.6133 0.679998 21.84 1.08 23.84 1.88C25.8667 2.65333 27.5867 3.76 29 5.2C30.44 6.61333 31.5467 8.32 32.32 10.32C33.12 12.32 33.52 14.5467 33.52 17C33.52 19.4533 33.12 21.68 32.32 23.68C31.5467 25.68 30.44 27.3867 29 28.8C27.5867 30.24 25.8667 31.3467 23.84 32.12C21.84 32.92 19.6133 33.32 17.16 33.32C14.7067 33.32 12.4667 32.92 10.44 32.12C8.44 31.3467 6.72 30.24 5.28 28.8C3.86667 27.3867 2.76 25.68 1.96 23.68C1.18667 21.68 0.8 19.4533 0.8 17C0.8 14.5467 1.18667 12.32 1.96 10.32C2.76 8.32 3.86667 6.61333 5.28 5.2C6.72 3.76 8.44 2.65333 10.44 1.88C12.4667 1.08 14.7067 0.679998 17.16 0.679998ZM17.16 31.72C19.3733 31.72 21.3867 31.36 23.2 30.64C25.0133 29.9467 26.56 28.96 27.84 27.68C29.1467 26.4 30.1467 24.8533 30.84 23.04C31.56 21.2267 31.92 19.2133 31.92 17C31.92 14.7867 31.56 12.7733 30.84 10.96C30.1467 9.14667 29.1467 7.6 27.84 6.32C26.56 5.04 25.0133 4.05333 23.2 3.36C21.3867 2.64 19.3733 2.28 17.16 2.28C14.9467 2.28 12.9333 2.64 11.12 3.36C9.30667 4.05333 7.74667 5.04 6.44 6.32C5.16 7.6 4.16 9.14667 3.44 10.96C2.74667 12.7733 2.4 14.7867 2.4 17C2.4 19.2133 2.74667 21.2267 3.44 23.04C4.16 24.8533 5.16 26.4 6.44 27.68C7.74667 28.96 9.30667 29.9467 11.12 30.64C12.9333 31.36 14.9467 31.72 17.16 31.72ZM26.24 22.96C25.3067 24.08 24.0933 25.04 22.6 25.84C21.1067 26.6133 19.3067 27 17.2 27C13.3867 27 10.56 26.16 8.72 24.48C6.90667 22.7733 6 20.28 6 17C6 13.72 6.90667 11.24 8.72 9.56C10.56 7.85333 13.3867 7 17.2 7C20 7 22.2 7.54667 23.8 8.64C25.4267 9.73333 26.24 11.08 26.24 12.68C26.24 13.96 25.72 15 24.68 15.8C23.6667 16.5733 22.24 16.96 20.4 16.96C18.8 16.96 17.6533 16.64 16.96 16C16.2667 15.3333 15.92 14.6133 15.92 13.84C15.92 13.2533 16.04 12.7733 16.28 12.4C16.52 12 16.7867 11.6533 17.08 11.36C17.3733 11.0667 17.64 10.7867 17.88 10.52C18.12 10.2267 18.24 9.90667 18.24 9.56C18.24 8.92 17.8933 8.6 17.2 8.6C16.9333 8.6 16.6 8.69333 16.2 8.88C15.8267 9.04 15.4533 9.30667 15.08 9.68C14.7333 10.0267 14.44 10.4667 14.2 11C13.96 11.5333 13.84 12.1467 13.84 12.84C13.84 13.5867 13.9867 14.2533 14.28 14.84C14.6 15.4 14.9467 15.9333 15.32 16.44C15.6933 16.9467 16.0267 17.4667 16.32 18C16.64 18.5067 16.8 19.0667 16.8 19.68C16.8 20.24 16.76 20.72 16.68 21.12C16.6267 21.52 16.5467 21.8933 16.44 22.24C16.36 22.56 16.28 22.88 16.2 23.2C16.1467 23.4933 16.12 23.8267 16.12 24.2C16.12 25 16.6667 25.4 17.76 25.4C18.16 25.4 18.6533 25.36 19.24 25.28C19.8267 25.1733 20.44 24.9867 21.08 24.72C21.7467 24.4533 22.4133 24.1067 23.08 23.68C23.7467 23.2267 24.3733 22.6533 24.96 21.96L26.24 22.96Z" fill="#648AB0"/>
</svg>
